<svg width="32" height="32" viewBox="0 0 32 32" xmlns="http://www.w3.org/2000/svg">
  <rect width="32" height="32" rx="7" fill="#0B1220"/>
  <path
    d="M16 6V26M16 6C16 6 11 6 11 10.5C11 12.8 12.8 14 12.8 14M16 6C16 6 21 6 21 10.5C21 12.8 19.2 14 19.2 14M8 5C8 5 8.6 9 11.5 10.8M24 5C24 5 23.4 9 20.5 10.8"
    stroke="#22D3B8"
    stroke-width="1.6"
    stroke-linecap="round"
    stroke-linejoin="round"
  />
  <path
    d="M10.5 25.5C10.5 25.5 12.8 23.8 16 23.8C19.2 23.8 21.5 25.5 21.5 25.5"
    stroke="#22D3B8"
    stroke-width="1.4"
    stroke-linecap="round"
    opacity="0.6"
  />
</svg>
